Genre: Comedy | Drama
Language:English 
http://www.imdb.com/title/tt0763831/
Source:Legend-RG Thanks!
Encoder:Tony

Format : AVI
Format/Info : Audio Video Interleave
File size : 1.09 GiB
Duration : 1h 26mn
Overall bit rate : 1 792 Kbps

Video
ID : 0
Format : MPEG-4 Visual
Format profile : Advanced Simple@L5
Format settings, BVOP : 1
Format settings, QPel : No
Format settings, GMC : No warppoints
Format settings, Matrix : Default (H.263)
Codec ID : XVID
Codec ID/Hint : XviD
Duration : 1h 26mn
Bit rate : 1 333 Kbps
Width : 640 pixels
Height : 336 pixels
Display aspect ratio : 1.905
Frame rate : 29.970 fps
Color space : YUV
Chroma subsampling : 4:2:0
Bit depth : 8 bits
Scan type : Progressive
Compression mode : Lossy
Bits/(Pixel*Frame) : 0.207
Stream size : 827 MiB (74%)
Writing library : XviD 1.2.1 (UTC 2008-12-04)

Audio
ID : 1
Format : AC-3
Format/Info : Audio Coding 3
Mode extension : CM (complete main)
Codec ID : 2000
Duration : 1h 26mn
Bit rate mode : Constant
Bit rate : 448 Kbps
Channel(s) : 2 channels
Channel positions : Front: L R
Sampling rate : 48.0 KHz
Bit depth : 16 bits
Compression mode : Lossy
Stream size : 278 MiB (25%)
Alignment : Aligned on interleaves
Interleave, duration : 33 ms (1.00 video frame)
Interleave, preload duration : 512 ms


Plot:
After stretching the truth on a deal with a spiritual guru, literary agent Jack McCall finds a Bodhi tree on his property. Its appearance holds a valuable lesson on the consequences of every word we speak.
 
http://img856.imageshack.us/img856/6360/vlcsnap2012041617h28m09.png 
http://img52.imageshack.us/img52/9218/vlcsnap2012041617h28m02.png 
http://img543.imageshack.us/img543/8904/vlcsnap2012041613h45m15.png 
http://img9.imageshack.us/img9/2956/vlcsnap2012041613h44m55.png

